<svg width="23" height="23" viewBox="0 0 23 23" fill="none" xmlns="http://www.w3.org/2000/svg">
<path fill-rule="evenodd" clip-rule="evenodd" d="M18.9649 22.6632L22.6632 18.9649C22.8788 18.7493 23 18.4567 23 18.1518V1.15C23 0.514873 22.4851 0 21.85 0H4.84824C4.54324 0 4.25074 0.12116 4.03507 0.336827L0.336827 4.03507C0.12116 4.25074 0 4.54325 0 4.84825V21.85C0 22.4851 0.514873 23 1.15 23H18.1518C18.4567 23 18.7493 22.8788 18.9649 22.6632ZM4.3719 4.7719C4.3719 4.55099 4.55099 4.3719 4.7719 4.3719H18.2281C18.449 4.3719 18.6281 4.55099 18.6281 4.7719V18.2281C18.6281 18.449 18.449 18.6281 18.2281 18.6281H2.40726C2.01727 18.6281 1.85783 18.127 2.17613 17.9016L4.20303 16.4667C4.30894 16.3917 4.3719 16.27 4.3719 16.1402V4.7719Z" fill="#FF541B"/>
</svg>
